HIERARCHY
ROOT Hips
{
	OFFSET 0.000000 0.000000 0.000000
	CHANNELS 6 Xposition Yposition Zposition Zrotation Yrotation Xrotation 
	JOINT LHipJoint
	{
		OFFSET 0.000000 0.000000 0.000000
		CHANNELS 3 Zrotation Yrotation Xrotation
		JOINT LeftUpLeg
		{
			OFFSET 1.363060 -1.794630 0.839290
			CHANNELS 3 Zrotation Yrotation Xrotation
			JOINT LeftLeg
			{
				OFFSET 2.448110 -6.726130 0.000000
				CHANNELS 3 Zrotation Yrotation Xrotation
				JOINT LeftFoot
				{
					OFFSET 2.562200 -7.039590 0.000000
					CHANNELS 3 Zrotation Yrotation Xrotation
					JOINT LeftToeBase
					{
						OFFSET 0.157640 -0.433110 2.322550
						CHANNELS 3 Zrotation Yrotation Xrotation
						End Site
						{
							OFFSET 0.000000 0.000000 0.000000
						}
					}
				}
			}
		}
	}
	JOINT RHipJoint
	{
		OFFSET 0.000000 0.000000 0.000000
		CHANNELS 3 Zrotation Yrotation Xrotation
		JOINT RightUpLeg
		{
			OFFSET -1.305520 -1.794630 0.839290
			CHANNELS 3 Zrotation Yrotation Xrotation
			JOINT RightLeg
			{
				OFFSET -2.542530 -6.985550 0.000000
				CHANNELS 3 Zrotation Yrotation Xrotation
				JOINT RightFoot
				{
					OFFSET -2.568260 -7.056230 0.000000
					CHANNELS 3 Zrotation Yrotation Xrotation
					JOINT RightToeBase
					{
						OFFSET -0.164730 -0.452590 2.363150
						CHANNELS 3 Zrotation Yrotation Xrotation
						End Site
						{
							OFFSET 0.000000 0.000000 0.000000
						}
					}
				}
			}
		}
	}
	JOINT LowerBack
	{
		OFFSET 0.000000 0.000000 0.000000
		CHANNELS 3 Zrotation Yrotation Xrotation
		JOINT Spine
		{
			OFFSET 0.028270 2.035590 -0.193380
			CHANNELS 3 Zrotation Yrotation Xrotation
			JOINT Spine1
			{
				OFFSET 0.056720 2.048850 -0.042750
				CHANNELS 3 Zrotation Yrotation Xrotation
				JOINT Neck
				{
					OFFSET 0.000000 0.000000 0.000000
					CHANNELS 3 Zrotation Yrotation Xrotation
					JOINT Neck1
					{
						OFFSET -0.054170 1.746240 0.172020
						CHANNELS 3 Zrotation Yrotation Xrotation
						JOINT Head
						{
							OFFSET 0.104070 1.761360 -0.123970
							CHANNELS 3 Zrotation Yrotation Xrotation
							End Site
							{
								OFFSET 0.000000 0.000000 0.000000
							}
						}
					}
				}
				JOINT LeftShoulder
				{
					OFFSET 0.000000 0.000000 0.000000
					CHANNELS 3 Zrotation Yrotation Xrotation
					JOINT LeftArm
					{
						OFFSET 3.362410 1.200890 -0.311210
						CHANNELS 3 Zrotation Yrotation Xrotation
						JOINT LeftForeArm
						{
							OFFSET 4.983000 -0.000000 -0.000000
							CHANNELS 3 Zrotation Yrotation Xrotation
							JOINT LeftHand
							{
								OFFSET 3.483560 -0.000000 -0.000000
								CHANNELS 3 Zrotation Yrotation Xrotation
								JOINT LeftFingerBase
								{
									OFFSET 0.000000 0.000000 0.000000
									CHANNELS 3 Zrotation Yrotation Xrotation
									JOINT LeftHandIndex1
									{
										OFFSET 0.715260 -0.000000 -0.000000
										CHANNELS 3 Zrotation Yrotation Xrotation
										End Site
										{
											OFFSET 0.000000 0.000000 0.000000
										}
									}
								}
								JOINT LThumb
								{
									OFFSET 0.000000 0.000000 0.000000
									CHANNELS 3 Zrotation Yrotation Xrotation
									End Site
									{
										OFFSET 0.000000 0.000000 0.000000
									}
								}
							}
						}
					}
				}
				JOINT RightShoulder
				{
					OFFSET 0.000000 0.000000 0.000000
					CHANNELS 3 Zrotation Yrotation Xrotation
					JOINT RightArm
					{
						OFFSET -3.136600 1.374050 -0.404650
						CHANNELS 3 Zrotation Yrotation Xrotation
						JOINT RightForeArm
						{
							OFFSET -5.241900 -0.000000 -0.000000
							CHANNELS 3 Zrotation Yrotation Xrotation
							JOINT RightHand
							{
								OFFSET -3.444170 -0.000000 -0.000000
								CHANNELS 3 Zrotation Yrotation Xrotation
								JOINT RightFingerBase
								{
									OFFSET 0.000000 0.000000 0.000000
									CHANNELS 3 Zrotation Yrotation Xrotation
									JOINT RightHandIndex1
									{
										OFFSET -0.622530 -0.000000 -0.000000
										CHANNELS 3 Zrotation Yrotation Xrotation
										End Site
										{
											OFFSET 0.000000 0.000000 0.000000
										}
									}
								}
								JOINT RThumb
								{
									OFFSET 0.000000 0.000000 0.000000
									CHANNELS 3 Zrotation Yrotation Xrotation
									End Site
									{
										OFFSET 0.000000 0.000000 0.000000
									}
								}
							}
						}
					}
				}
			}
		}
	}
}
MOTION
Frames: 10
Frame Time: 0.008333
-0.150482 18.357031 9.101535 -9.147509 2.222691 14.668834 5.928357 5.162541 -1.570070 -21.078216 -50.967137 24.185012 -4.094167 -2.279345 -3.660599 -12.951506 46.751763 -43.101434 0.924000 6.123900 17.144500 0.002963 -4.430505 -0.155402 21.303970 27.564189 0.939072 3.703119 -0.613094 2.510291 8.609700 -26.346998 -5.015248 -0.002100 0.295400 -0.811600 -1.504412 2.179073 3.445973 17.226498 7.091371 -24.553087 -11.132487 -0.103422 -6.046823 -23.216860 -15.172768 -4.021453 20.812339 -25.254575 29.396588 3.361300 -10.560200 9.438600 -9.587449 -6.593243 1.541004 -85.033828 12.442185 11.198475 11.515139 -12.986200 -2.081282 0.275181 1.871167 21.663370 14.563774 -14.479437 -4.315600 -7.125000 0.000000 0.000000 -8.508000 13.225200 6.408500 13.352108 7.430759 1.271479 83.639787 -14.642469 -2.865976 -15.064124 19.652748 -3.311495 0.921116 1.854803 35.972076 8.184721 -32.608339 -4.873400 7.125000 0.000000 0.000000 46.083500 -58.377100 -17.414000 
-0.146899 18.357663 9.086993 -9.576082 2.418504 14.555280 6.135766 5.168345 -1.538874 -20.497927 -50.785710 23.787068 -4.094470 -2.304422 -3.621600 -12.866264 46.460207 -42.809093 0.970700 6.272400 17.576800 0.224545 -4.433179 -0.048025 21.529138 27.517022 0.839931 3.698777 -0.648501 2.576634 8.578678 -26.294389 -5.088829 -0.000100 -0.069500 0.190900 -1.963540 2.103871 3.363624 19.510427 7.321310 -23.726836 -11.751596 -0.342559 -6.457476 -23.453888 -15.116832 -4.788460 19.830227 -24.844982 30.022924 3.186400 -10.422900 9.616900 -9.792594 -6.574672 1.465490 -85.621063 12.279255 10.553242 11.528020 -13.000028 -2.082051 0.283560 1.864138 21.786291 14.501883 -14.416206 -4.277900 -7.125000 0.000000 0.000000 -8.552600 13.300300 6.429200 12.896694 7.463155 1.321254 83.274562 -14.485999 -2.309802 -15.046470 19.688995 -3.310940 0.907484 1.851463 35.828570 8.188954 -32.493044 -4.862700 7.125000 0.000000 0.000000 45.954700 -58.284300 -17.244200 
-0.143422 18.357663 9.072345 -9.977724 2.601953 14.475080 6.336069 5.159150 -1.524783 -19.790208 -50.432646 23.169014 -4.081162 -2.320615 -3.572036 -13.036908 46.354059 -42.103071 0.931400 6.147700 17.213500 0.423441 -4.436429 0.043431 21.742247 27.486298 0.719174 3.693573 -0.686139 2.641136 8.556063 -26.270943 -5.112813 -0.007900 -0.572900 1.574300 -2.381370 2.035390 3.331435 21.636731 7.498472 -23.025750 -12.281750 -0.589716 -6.885254 -23.610111 -15.055911 -5.554170 18.759298 -24.385401 30.655078 2.995800 -10.275400 9.800600 -9.977130 -6.564606 1.405182 -86.285469 11.995609 9.197079 11.445080 -12.883439 -2.053340 0.317655 1.882669 22.629169 14.531228 -14.417961 -4.294200 -7.125000 0.000000 0.000000 -8.531400 13.270800 6.418200 12.441993 7.504182 1.380967 82.881502 -14.364541 -1.710091 -14.991969 19.685637 -3.296106 0.884797 1.848768 35.749336 8.312077 -32.167899 -4.898900 7.125000 0.000000 0.000000 45.711600 -58.005400 -16.805900 
-0.137837 18.349759 9.042207 -10.592744 2.879952 13.911386 6.603869 5.160369 -1.406243 -18.817497 -49.490126 22.447810 -4.053018 -2.377458 -3.544927 -13.473718 46.232820 -40.457599 0.812500 5.751900 16.066400 0.625550 -4.507145 0.277429 22.329957 27.223725 0.876343 3.685375 -0.722088 2.760571 8.493055 -26.162585 -5.064117 -0.014000 -0.763200 2.097600 -2.623161 2.028115 3.586435 24.173170 7.531294 -21.151519 -12.989450 -0.899734 -8.032283 -23.314237 -15.146579 -7.377155 16.843515 -23.779225 32.075751 2.517400 -10.092000 10.165700 -10.276813 -6.483107 1.284520 -86.920691 11.309571 7.177959 11.234992 -12.633573 -1.990261 0.380480 1.928912 24.249160 14.627206 -14.553308 -4.376400 -7.125000 0.000000 0.000000 -8.460700 13.066100 6.400600 11.940587 7.514108 1.395655 82.415131 -13.995136 -1.259544 -14.906493 19.673171 -3.268371 0.863213 1.850876 35.854507 8.483272 -31.968920 -4.981900 7.125000 0.000000 0.000000 45.660100 -57.807500 -16.553700 
-0.137204 18.349759 9.042734 -10.660238 2.937723 13.922040 6.690161 5.139230 -1.448357 -18.894826 -49.522341 22.540885 -4.060659 -2.394585 -3.546024 -13.434842 46.213933 -40.562976 0.818200 5.771900 16.123900 0.713308 -4.521962 0.290507 22.299633 27.227374 0.862401 3.687342 -0.719488 2.708160 8.502472 -26.213483 -5.023983 -0.013300 -0.745100 2.047600 -2.992342 1.951304 3.735320 25.244878 7.573354 -21.297550 -13.056101 -1.090578 -8.285766 -23.651071 -15.095717 -7.633250 16.115827 -23.474905 32.585045 2.432700 -10.029100 10.357600 -10.300865 -6.452650 1.266152 -87.535880 11.558709 6.569383 11.292921 -12.694805 -2.006279 0.386714 1.927997 24.282852 14.616978 -14.579014 -4.378900 -7.125000 0.000000 0.000000 -8.471300 13.039700 6.413600 11.645534 7.528793 1.464017 82.059211 -14.182420 -0.494927 -14.732261 19.512740 -3.209791 0.867992 1.828775 35.721161 8.158487 -31.846674 -4.768800 7.125000 0.000000 0.000000 45.207200 -57.785400 -16.315100 
-0.136572 18.349970 9.042523 -10.633309 2.983300 14.012143 6.711139 5.083806 -1.542874 -18.935183 -49.494873 22.519941 -4.063337 -2.389294 -3.527806 -13.399460 46.169450 -40.577219 0.818800 5.774000 16.130000 0.728161 -4.546739 0.237545 22.265884 27.361479 0.928566 3.695391 -0.698079 2.600075 8.543109 -26.348927 -5.093358 -0.013100 -0.739800 2.033100 -3.092246 1.946375 4.241256 25.534112 7.675076 -22.141189 -12.943512 -1.206725 -8.557812 -23.681513 -14.961536 -7.836517 15.398907 -23.126364 33.331591 2.331700 -9.927100 10.588100 -10.225328 -6.364915 1.299621 -87.986084 12.351492 7.564288 11.539489 -13.005688 -2.079754 0.322663 1.882819 22.870806 14.557218 -14.443132 -4.309400 -7.125000 0.000000 0.000000 -8.512200 13.242400 6.408600 11.452292 7.507290 1.571910 81.751163 -14.555801 0.405778 -14.466323 19.237221 -3.115707 0.880217 1.794225 35.242209 7.381237 -31.701466 -4.286000 7.125000 0.000000 0.000000 44.296200 -57.849100 -15.962700 
-0.136151 18.349654 9.041785 -10.675731 3.021734 14.042318 6.784438 5.055043 -1.592036 -18.951648 -49.460242 22.506104 -4.065810 -2.399772 -3.519641 -13.420780 46.178233 -40.536022 0.810800 5.746400 16.050300 0.803067 -4.571463 0.236313 22.247238 27.535585 0.997190 3.701002 -0.688375 2.528905 8.587799 -26.488591 -5.180990 -0.011800 -0.702200 1.929800 -3.444956 1.879296 4.438173 26.483462 7.720648 -22.390721 -12.919946 -1.390980 -8.825358 -23.987509 -14.786343 -7.832150 14.916879 -22.728540 33.529513 2.338200 -9.809400 10.681700 -10.217185 -6.328395 1.275824 -88.615184 12.794614 7.608812 11.691383 -13.181084 -2.125566 0.284826 1.871168 22.221956 14.656208 -14.388894 -4.322500 -7.125000 0.000000 0.000000 -8.438700 13.308500 6.340200 11.166957 7.512043 1.636129 81.375021 -14.805704 1.274442 -14.296838 19.088493 -3.062772 0.888769 1.770119 34.955911 6.912365 -31.643436 -3.998600 7.125000 0.000000 0.000000 43.771000 -57.907900 -15.785400 
-0.138574 18.353026 9.050426 -10.871895 3.140358 13.922291 7.048050 5.122910 -1.468296 -19.090284 -49.629806 22.631265 -4.076821 -2.460328 -3.495516 -13.473197 46.265431 -40.644745 0.802200 5.716200 15.963300 1.125032 -4.602056 0.462962 22.089351 27.717755 0.981768 3.705301 -0.674048 2.459364 8.658029 -26.666105 -5.278032 -0.011300 -0.686400 1.886200 -4.868633 1.403766 3.457730 30.266007 7.194735 -20.001895 -13.031946 -2.006848 -9.540841 -25.033883 -14.681899 -9.067011 14.302694 -21.870835 33.568965 2.412000 -9.493100 10.940000 -10.488452 -6.357180 0.998577 -90.153698 12.285416 5.649042 11.817010 -13.274751 -2.154242 0.289155 1.885467 22.454597 14.805940 -14.364206 -4.367200 -7.125000 0.000000 0.000000 -8.332500 13.304500 6.259300 10.441331 7.602383 1.616626 80.121290 -14.314710 3.075838 -14.097498 18.985836 -3.018117 0.895635 1.753556 34.858600 6.829796 -31.652187 -3.942300 7.125000 0.000000 0.000000 43.680100 -57.930700 -15.768700 
-0.143422 18.359876 9.068446 -10.642603 3.130969 14.277226 7.003857 5.140676 -1.511979 -19.278422 -50.007472 22.589126 -4.074025 -2.439395 -3.509671 -13.488101 46.438530 -40.971267 0.798800 5.704700 15.930000 1.126803 -4.547527 0.385773 21.753874 27.926881 0.832805 3.712968 -0.642865 2.352720 8.749927 -26.877792 -5.415326 -0.011400 -0.689400 1.894700 -5.093228 1.266295 2.974653 30.011800 7.160071 -20.386177 -12.846342 -1.997378 -9.072822 -25.014156 -14.676456 -8.953592 14.305568 -21.871767 33.560728 2.405500 -9.487400 10.935200 -10.481645 -6.411025 1.025038 -90.178502 12.329374 5.609950 11.850317 -13.286848 -2.157184 0.284245 1.868265 22.437548 14.774166 -14.187424 -4.306200 -7.125000 0.000000 0.000000 -8.352300 13.505800 6.238800 10.490299 7.615030 1.632454 80.158146 -14.342130 3.018267 -14.104335 18.973455 -3.021471 0.900764 1.752832 34.859907 6.874314 -31.656604 -3.965500 7.125000 0.000000 0.000000 43.723700 -57.927100 -15.784800 
-0.145845 18.363037 9.078036 -10.547490 3.104334 14.449413 6.987845 5.152409 -1.525353 -19.361745 -50.180469 22.576170 -4.075857 -2.432448 -3.516200 -13.435183 46.465633 -41.202472 0.812200 5.751200 16.064100 1.136083 -4.520903 0.353427 21.595837 28.041914 0.764760 3.717190 -0.623201 2.292747 8.783487 -26.948378 -5.502926 -0.013100 -0.738600 2.029700 -5.222500 1.195074 2.690829 29.973883 7.141703 -20.512510 -12.768562 -2.000972 -8.843255 -25.002148 -14.664053 -8.918739 14.290044 -21.846414 33.567364 2.401600 -9.472200 10.938600 -10.483636 -6.441987 1.030671 -90.245352 12.328447 5.537836 11.878229 -13.300387 -2.155318 0.281280 1.834613 22.452328 14.641988 -13.907353 -4.183500 -7.125000 0.000000 0.000000 -8.443000 13.837300 6.248300 10.494994 7.624360 1.638460 80.177469 -14.369908 2.982020 -14.128026 18.994716 -3.031529 0.901250 1.755422 34.922330 6.990127 -31.663637 -4.033100 7.125000 0.000000 0.000000 43.841600 -57.907500 -15.817500 
